<?xml version="1.0" encoding="UTF-8" standalone="no"?><svg width="98" height="36" viewBox="0 0 98 36" fill="none" xmlns="http://www.w3.org/2000/svg">
<path d="M27.7074 10.8091L19.4618 35.3539H9.23479L0.989258 10.8091H10.2575L14.2205 27.0445H14.4761L18.4391 10.8091H27.7074Z" fill="white"/>
<path d="M37.8286 35.8011C35.2079 35.8011 32.9495 35.3004 31.0532 34.299C29.1676 33.287 27.7134 31.8382 26.6907 29.9526C25.6787 28.0563 25.1727 25.7872 25.1727 23.1452C25.1727 20.6097 25.684 18.3939 26.7067 16.4976C27.7294 14.6014 29.1729 13.1259 31.0372 12.0713C32.9015 11.0166 35.1014 10.4893 37.6369 10.4893C39.4905 10.4893 41.1684 10.7769 42.6705 11.3522C44.1726 11.9274 45.4563 12.7637 46.5216 13.861C47.5869 14.9476 48.4072 16.2686 48.9825 17.8239C49.5577 19.3793 49.8454 21.1318 49.8454 23.0813V25.1267H27.9212V20.2688H41.7277C41.717 19.5657 41.5359 18.9479 41.1843 18.4152C40.8434 17.8719 40.38 17.4511 39.7941 17.1528C39.2188 16.8439 38.5637 16.6894 37.8286 16.6894C37.1148 16.6894 36.4597 16.8439 35.8631 17.1528C35.2665 17.4511 34.7871 17.8666 34.4249 18.3992C34.0734 18.9319 33.8869 19.5551 33.8656 20.2688V25.5102C33.8656 26.2985 34.0308 27.0016 34.361 27.6195C34.6913 28.2374 35.1653 28.7221 35.7832 29.0737C36.4011 29.4252 37.1468 29.601 38.0204 29.601C38.6276 29.601 39.1816 29.5158 39.6823 29.3453C40.1936 29.1749 40.6304 28.9299 40.9926 28.6103C41.3548 28.28 41.6211 27.8858 41.7916 27.4278H49.8454C49.5684 29.1323 48.9132 30.6131 47.8799 31.8701C46.8465 33.1165 45.4776 34.086 43.7731 34.7784C42.0792 35.4602 40.0977 35.8011 37.8286 35.8011Z" fill="white" fill-opacity="0.8"/>
<path d="M57.9851 21.5472V35.3537H49.1643V10.8089H57.5377V15.4749H57.7934C58.326 13.9196 59.2635 12.6998 60.6058 11.8156C61.9587 10.9314 63.5354 10.4893 65.3358 10.4893C67.0723 10.4893 68.5797 10.8888 69.858 11.6877C71.1471 12.4761 72.1431 13.5627 72.8463 14.9476C73.56 16.3325 73.9116 17.9145 73.9009 19.6936V35.3537H65.0801V21.5472C65.0908 20.3328 64.7818 19.3793 64.1533 18.6869C63.5354 17.9944 62.6725 17.6482 61.5646 17.6482C60.8402 17.6482 60.2063 17.808 59.663 18.1276C59.1303 18.4365 58.7202 18.8839 58.4325 19.4699C58.1449 20.0451 57.9958 20.7376 57.9851 21.5472Z" fill="white" fill-opacity="0.6"/>
<path d="M88.8895 10.8093V17.2011H72.718V10.8093H88.8895ZM75.85 4.92871H84.6709V27.4601C84.6709 27.801 84.7294 28.0887 84.8466 28.323C84.9638 28.5467 85.1449 28.7172 85.3899 28.8344C85.635 28.9409 85.9492 28.9942 86.3327 28.9942C86.5991 28.9942 86.908 28.9622 87.2596 28.8983C87.6218 28.8344 87.8881 28.7811 88.0586 28.7385L89.3369 34.9386C88.9428 35.0558 88.3781 35.1996 87.6431 35.3701C86.9187 35.5405 86.0558 35.6524 85.0544 35.7057C83.0303 35.8122 81.3311 35.6045 79.9568 35.0825C78.5826 34.5498 77.5492 33.7135 76.8568 32.5736C76.1643 31.4337 75.8287 30.0062 75.85 28.2911V4.92871Z" fill="white" fill-opacity="0.4"/>
<path d="M88.1899 35.3541V10.8093H97.0107V35.3541H88.1899ZM92.6003 8.25251C91.4072 8.25251 90.3845 7.85834 89.5322 7.07001C88.68 6.28168 88.2539 5.33355 88.2539 4.22562C88.2539 3.11769 88.68 2.16956 89.5322 1.38123C90.3845 0.592896 91.4072 0.19873 92.6003 0.19873C93.8042 0.19873 94.8269 0.592896 95.6685 1.38123C96.5207 2.16956 96.9468 3.11769 96.9468 4.22562C96.9468 5.33355 96.5207 6.28168 95.6685 7.07001C94.8269 7.85834 93.8042 8.25251 92.6003 8.25251Z" fill="white" fill-opacity="0.2"/>
</svg>
